<?xml version='1.0' encoding='UTF-8' ?>
<!-- MADE BY SVG.HS -->
<!DOCTYPE svg PUBLIC "-//W3C//DTD SVG 1.1//EN" "http://www.w3.org/Graphics/SVG/1.1/DTD/svg11.dtd">
<svg xmlns="http://www.w3.org/2000/svg" version="1.1"
     xmlns:xlink="http://www.w3.org/1999/xlink" width="600.0"
     height="600.0"
  ><rect x="0.0" y="0.0" width="600.0" height="600.0"
         stroke-width="0.0" fill="rgb(255,255,255)"
         stroke="rgb(255,255,255)"
  /><line x1="317.3205080756888" y1="290.0" x2="300.0" y2="300.0"
          stroke="rgb(0,0,0)" stroke-width="1.0" stroke-linecap="round"
  /><line x1="317.3205080756888" y1="270.0" x2="317.3205080756888"
          y2="290.0" stroke="rgb(0,0,0)" stroke-width="1.0"
          stroke-linecap="round"
  /><line x1="334.6410161513775" y1="260.0" x2="317.3205080756888"
          y2="270.0" stroke="rgb(0,0,0)" stroke-width="1.0"
          stroke-linecap="round"
  /><line x1="334.6410161513775" y1="240.0" x2="334.6410161513775"
          y2="260.0" stroke="rgb(0,0,0)" stroke-width="1.0"
          stroke-linecap="round"
  /><line x1="351.9615242270663" y1="230.0" x2="334.6410161513775"
          y2="240.0" stroke="rgb(0,0,0)" stroke-width="1.0"
          stroke-linecap="round"
  /><line x1="351.9615242270663" y1="210.0" x2="351.9615242270663"
          y2="230.0" stroke="rgb(0,0,0)" stroke-width="1.0"
          stroke-linecap="round"
  /><line x1="369.2820323027551" y1="200.0" x2="351.9615242270663"
          y2="210.0" stroke="rgb(0,0,0)" stroke-width="1.0"
          stroke-linecap="round"
  /><line x1="369.2820323027551" y1="180.0" x2="369.2820323027551"
          y2="200.0" stroke="rgb(0,0,0)" stroke-width="1.0"
          stroke-linecap="round"
  /><line x1="351.9615242270663" y1="170.0" x2="369.2820323027551"
          y2="180.0" stroke="rgb(0,0,0)" stroke-width="1.0"
          stroke-linecap="round"
  /><line x1="334.6410161513775" y1="200.0" x2="351.9615242270663"
          y2="210.0" stroke="rgb(0,0,0)" stroke-width="1.0"
          stroke-linecap="round"
  /><line x1="334.6410161513775" y1="180.0" x2="334.6410161513775"
          y2="200.0" stroke="rgb(0,0,0)" stroke-width="1.0"
          stroke-linecap="round"
  /><line x1="351.9615242270663" y1="170.0" x2="334.6410161513775"
          y2="180.0" stroke="rgb(0,0,0)" stroke-width="1.0"
          stroke-linecap="round"
  /><line x1="334.6410161513775" y1="200.0" x2="351.9615242270663"
          y2="210.0" stroke="rgb(0,0,0)" stroke-width="1.0"
          stroke-linecap="round"
  /><line x1="317.3205080756888" y1="230.0" x2="334.6410161513775"
          y2="240.0" stroke="rgb(0,0,0)" stroke-width="1.0"
          stroke-linecap="round"
  /><line x1="317.3205080756888" y1="210.0" x2="317.3205080756888"
          y2="230.0" stroke="rgb(0,0,0)" stroke-width="1.0"
          stroke-linecap="round"
  /><line x1="334.6410161513775" y1="200.0" x2="317.3205080756888"
          y2="210.0" stroke="rgb(0,0,0)" stroke-width="1.0"
          stroke-linecap="round"
  /><line x1="317.3205080756888" y1="230.0" x2="334.6410161513775"
          y2="240.0" stroke="rgb(0,0,0)" stroke-width="1.0"
          stroke-linecap="round"
  /><line x1="300.0" y1="260.0" x2="317.3205080756888" y2="270.0"
          stroke="rgb(0,0,0)" stroke-width="1.0" stroke-linecap="round"
  /><line x1="300.0" y1="240.0" x2="300.0" y2="260.0"
          stroke="rgb(0,0,0)" stroke-width="1.0" stroke-linecap="round"
  /><line x1="317.3205080756888" y1="230.0" x2="300.0" y2="240.0"
          stroke="rgb(0,0,0)" stroke-width="1.0" stroke-linecap="round"
  /><line x1="300.0" y1="260.0" x2="317.3205080756888" y2="270.0"
          stroke="rgb(0,0,0)" stroke-width="1.0" stroke-linecap="round"
  /><line x1="282.6794919243112" y1="290.0" x2="300.0" y2="300.0"
          stroke="rgb(0,0,0)" stroke-width="1.0" stroke-linecap="round"
  /><line x1="282.6794919243112" y1="270.0" x2="282.6794919243112"
          y2="290.0" stroke="rgb(0,0,0)" stroke-width="1.0"
          stroke-linecap="round"
  /><line x1="300.0" y1="260.0" x2="282.6794919243112" y2="270.0"
          stroke="rgb(0,0,0)" stroke-width="1.0" stroke-linecap="round"
  /><line x1="300.0" y1="240.0" x2="300.0" y2="260.0"
          stroke="rgb(0,0,0)" stroke-width="1.0" stroke-linecap="round"
  /><line x1="317.32050807568874" y1="230.0" x2="300.0" y2="240.0"
          stroke="rgb(0,0,0)" stroke-width="1.0" stroke-linecap="round"
  /><line x1="317.32050807568874" y1="210.0" x2="317.32050807568874"
          y2="230.0" stroke="rgb(0,0,0)" stroke-width="1.0"
          stroke-linecap="round"
  /><line x1="334.6410161513775" y1="200.0" x2="317.32050807568874"
          y2="210.0" stroke="rgb(0,0,0)" stroke-width="1.0"
          stroke-linecap="round"
  /><line x1="334.6410161513775" y1="180.0" x2="334.6410161513775"
          y2="200.0" stroke="rgb(0,0,0)" stroke-width="1.0"
          stroke-linecap="round"
  /><line x1="317.32050807568874" y1="170.0" x2="334.6410161513775"
          y2="180.0" stroke="rgb(0,0,0)" stroke-width="1.0"
          stroke-linecap="round"
  /><line x1="300.0" y1="200.0" x2="317.32050807568874" y2="210.0"
          stroke="rgb(0,0,0)" stroke-width="1.0" stroke-linecap="round"
  /><line x1="300.0" y1="180.0" x2="300.0" y2="200.0"
          stroke="rgb(0,0,0)" stroke-width="1.0" stroke-linecap="round"
  /><line x1="317.32050807568874" y1="170.0" x2="300.0" y2="180.0"
          stroke="rgb(0,0,0)" stroke-width="1.0" stroke-linecap="round"
  /><line x1="300.0" y1="200.0" x2="317.32050807568874" y2="210.0"
          stroke="rgb(0,0,0)" stroke-width="1.0" stroke-linecap="round"
  /><line x1="282.6794919243112" y1="230.0" x2="300.0" y2="240.0"
          stroke="rgb(0,0,0)" stroke-width="1.0" stroke-linecap="round"
  /><line x1="282.6794919243112" y1="210.0" x2="282.6794919243112"
          y2="230.0" stroke="rgb(0,0,0)" stroke-width="1.0"
          stroke-linecap="round"
  /><line x1="300.0" y1="200.0" x2="282.6794919243112" y2="210.0"
          stroke="rgb(0,0,0)" stroke-width="1.0" stroke-linecap="round"
  /><line x1="282.6794919243112" y1="230.0" x2="300.0" y2="240.0"
          stroke="rgb(0,0,0)" stroke-width="1.0" stroke-linecap="round"
  /><line x1="265.3589838486225" y1="260.0" x2="282.6794919243112"
          y2="270.0" stroke="rgb(0,0,0)" stroke-width="1.0"
          stroke-linecap="round"
  /><line x1="265.3589838486225" y1="240.0" x2="265.3589838486225"
          y2="260.0" stroke="rgb(0,0,0)" stroke-width="1.0"
          stroke-linecap="round"
  /><line x1="282.6794919243112" y1="230.0" x2="265.3589838486225"
          y2="240.0" stroke="rgb(0,0,0)" stroke-width="1.0"
          stroke-linecap="round"
  /><line x1="282.6794919243112" y1="210.0" x2="282.6794919243112"
          y2="230.0" stroke="rgb(0,0,0)" stroke-width="1.0"
          stroke-linecap="round"
  /><line x1="300.0" y1="200.0" x2="282.6794919243112" y2="210.0"
          stroke="rgb(0,0,0)" stroke-width="1.0" stroke-linecap="round"
  /><line x1="300.0" y1="180.0" x2="300.0" y2="200.0"
          stroke="rgb(0,0,0)" stroke-width="1.0" stroke-linecap="round"
  /><line x1="282.6794919243112" y1="170.0" x2="300.0" y2="180.0"
          stroke="rgb(0,0,0)" stroke-width="1.0" stroke-linecap="round"
  /><line x1="265.3589838486224" y1="200.0" x2="282.6794919243112"
          y2="210.0" stroke="rgb(0,0,0)" stroke-width="1.0"
          stroke-linecap="round"
  /><line x1="265.3589838486224" y1="180.0" x2="265.3589838486224"
          y2="200.0" stroke="rgb(0,0,0)" stroke-width="1.0"
          stroke-linecap="round"
  /><line x1="282.6794919243112" y1="170.0" x2="265.3589838486224"
          y2="180.0" stroke="rgb(0,0,0)" stroke-width="1.0"
          stroke-linecap="round"
  /><line x1="265.3589838486224" y1="200.0" x2="282.6794919243112"
          y2="210.0" stroke="rgb(0,0,0)" stroke-width="1.0"
          stroke-linecap="round"
  /><line x1="248.03847577293368" y1="230.0" x2="265.3589838486225"
          y2="240.0" stroke="rgb(0,0,0)" stroke-width="1.0"
          stroke-linecap="round"
  /><line x1="248.03847577293368" y1="210.0" x2="248.03847577293368"
          y2="230.0" stroke="rgb(0,0,0)" stroke-width="1.0"
          stroke-linecap="round"
  /><line x1="265.3589838486225" y1="200.0" x2="248.03847577293368"
          y2="210.0" stroke="rgb(0,0,0)" stroke-width="1.0"
          stroke-linecap="round"
  /><line x1="265.3589838486225" y1="180.0" x2="265.3589838486225"
          y2="200.0" stroke="rgb(0,0,0)" stroke-width="1.0"
          stroke-linecap="round"
  /><line x1="248.03847577293368" y1="170.0" x2="265.3589838486225"
          y2="180.0" stroke="rgb(0,0,0)" stroke-width="1.0"
          stroke-linecap="round"
  /><line x1="230.7179676972449" y1="200.0" x2="248.03847577293368"
          y2="210.0" stroke="rgb(0,0,0)" stroke-width="1.0"
          stroke-linecap="round"
  /><line x1="230.7179676972449" y1="180.0" x2="230.7179676972449"
          y2="200.0" stroke="rgb(0,0,0)" stroke-width="1.0"
          stroke-linecap="round"
  /><line x1="248.03847577293368" y1="170.0" x2="230.7179676972449"
          y2="180.0" stroke="rgb(0,0,0)" stroke-width="1.0"
          stroke-linecap="round"
  /><line x1="265.3589838486225" y1="200.0" x2="248.03847577293368"
          y2="210.0" stroke="rgb(0,0,0)" stroke-width="1.0"
          stroke-linecap="round"
  /><line x1="282.6794919243112" y1="230.0" x2="265.3589838486225"
          y2="240.0" stroke="rgb(0,0,0)" stroke-width="1.0"
          stroke-linecap="round"
  /><line x1="300.0" y1="260.0" x2="282.6794919243112" y2="270.0"
          stroke="rgb(0,0,0)" stroke-width="1.0"
          stroke-linecap="round"/></svg>